<?xml version="1.0" encoding="UTF-8"?>
<svg version="1.1" xmlns="http://www.w3.org/2000/svg" width="1080" height="1080">
<path d="M0 0 C0.9796875 0.04382813 1.959375 0.08765625 2.96875 0.1328125 C3.98710937 0.184375 5.00546875 0.2359375 6.0546875 0.2890625 C7.54742187 0.35480469 7.54742187 0.35480469 9.0703125 0.421875 C17.63546473 0.82441479 26.01606864 1.36303201 34.36328125 3.37890625 C38.79836154 4.30372512 43.29869097 4.7978121 47.79296875 5.3515625 C50.64216454 5.86250172 52.41133098 6.59619373 54.9296875 7.9140625 C56.98296999 8.2554744 56.98296999 8.2554744 59.1171875 8.3515625 C63.15470663 8.73233666 66.60600662 9.65882474 70.41015625 11.03125 C73.40842971 12.08180783 76.44346775 12.95839662 79.4921875 13.8515625 C83.32437783 15.01418734 86.87863909 16.24884159 90.4296875 18.1015625 C93.42044352 19.65034687 95.62625586 20.50113354 98.9296875 20.9140625 C98.9296875 21.5740625 98.9296875 22.2340625 98.9296875 22.9140625 C99.78820312 23.01589844 100.64671875 23.11773437 101.53125 23.22265625 C105.21464505 23.97203662 107.97991958 25.24029481 111.3046875 26.9765625 C112.36429687 27.52441406 113.42390625 28.07226562 114.515625 28.63671875 C115.31226563 29.05824219 116.10890625 29.47976562 116.9296875 29.9140625 C116.9296875 30.5740625 116.9296875 31.2340625 116.9296875 31.9140625 C117.661875 32.0275 118.3940625 32.1409375 119.1484375 32.2578125 C130.75916975 34.99742348 146.14095434 47.25991454 153.9296875 55.9140625 C153.9296875 56.5740625 153.9296875 57.2340625 153.9296875 57.9140625 C154.5896875 57.9140625 155.2496875 57.9140625 155.9296875 57.9140625 C155.9296875 58.5740625 155.9296875 59.2340625 155.9296875 59.9140625 C156.9196875 60.2440625 157.9096875 60.5740625 158.9296875 60.9140625 C158.9296875 61.5740625 158.9296875 62.2340625 158.9296875 62.9140625 C159.5896875 62.9140625 160.2496875 62.9140625 160.9296875 62.9140625 C170.05391415 72.62439399 176.25139602 83.95803407 181.9296875 95.9140625 C182.40849365 96.90768799 182.40849365 96.90768799 182.89697266 97.92138672 C191.65876604 116.45246035 197.67521776 138.00109189 200.39453125 158.28515625 C200.79314609 160.9881722 201.28161775 163.4769082 201.95703125 166.109375 C203.81521495 173.37793293 204.04834056 180.43891941 203.9296875 187.9140625 C204.5896875 187.9140625 205.2496875 187.9140625 205.9296875 187.9140625 C206.2596875 190.8840625 206.5896875 193.8540625 206.9296875 196.9140625 C208.95024593 192.52154417 210.33863985 188.76065327 210.9296875 183.9140625 C211.5896875 183.9140625 212.2496875 183.9140625 212.9296875 183.9140625 C213.0328125 182.9034375 213.1359375 181.8928125 213.2421875 180.8515625 C213.82451062 177.51643918 214.64211884 174.90656618 216.046875 171.8515625 C217.06021826 169.62758791 217.96565883 167.3731308 218.8671875 165.1015625 C219.36798828 163.84279297 219.36798828 163.84279297 219.87890625 162.55859375 C220.22566406 161.68589844 220.57242187 160.81320313 220.9296875 159.9140625 C221.67924641 158.03888612 222.42923032 156.16387956 223.1796875 154.2890625 C223.68242188 153.03222656 223.68242188 153.03222656 224.1953125 151.75 C224.43765625 151.14414063 224.68 150.53828125 224.9296875 149.9140625 C225.5896875 149.9140625 226.2496875 149.9140625 226.9296875 149.9140625 C227.0328125 149.1921875 227.1359375 148.4703125 227.2421875 147.7265625 C227.9296875 144.9140625 227.9296875 144.9140625 229.3046875 142.6640625 C231.50187217 138.94574998 232.66618567 135.02716422 233.9296875 130.9140625 C234.5896875 130.9140625 235.2496875 130.9140625 235.9296875 130.9140625 C236.0534375 130.1715625 236.1771875 129.4290625 236.3046875 128.6640625 C236.88455451 126.11264765 237.66677489 124.1873052 238.9296875 121.9140625 C239.5896875 121.9140625 240.2496875 121.9140625 240.9296875 121.9140625 C240.9296875 120.2640625 240.9296875 118.6140625 240.9296875 116.9140625 C241.5896875 116.9140625 242.2496875 116.9140625 242.9296875 116.9140625 C243.043125 116.3365625 243.1565625 115.7590625 243.2734375 115.1640625 C244.1957859 112.00172515 245.9496416 109.62854942 247.7734375 106.9140625 C248.93646295 104.9023428 249.48401602 103.1829355 249.9296875 100.9140625 C250.5896875 100.9140625 251.2496875 100.9140625 251.9296875 100.9140625 C251.9296875 99.5940625 251.9296875 98.2740625 251.9296875 96.9140625 C252.5896875 96.9140625 253.2496875 96.9140625 253.9296875 96.9140625 C255.13596758 94.58192102 256.0951613 92.41764111 256.9296875 89.9140625 C257.5896875 89.9140625 258.2496875 89.9140625 258.9296875 89.9140625 C259.2596875 88.9240625 259.5896875 87.9340625 259.9296875 86.9140625 C260.5896875 86.9140625 261.2496875 86.9140625 261.9296875 86.9140625 C261.5996875 85.9240625 261.2696875 84.9340625 260.9296875 83.9140625 C262.4146875 83.4190625 262.4146875 83.4190625 263.9296875 82.9140625 C264.21457031 82.19863281 264.49945312 81.48320312 264.79296875 80.74609375 C266.25126523 77.11288086 268.56522168 74.5046535 271.1171875 71.6015625 C271.61404053 71.02760742 272.11089355 70.45365234 272.62280273 69.86230469 C273.61084752 68.72219125 274.60142267 67.58426492 275.59472656 66.44873047 C276.69791207 65.18051099 277.78136339 63.89515471 278.859375 62.60546875 C283.38577508 57.22360072 288.4067225 52.27589226 293.9296875 47.9140625 C294.5896875 47.9140625 295.2496875 47.9140625 295.9296875 47.9140625 C295.9296875 47.2540625 295.9296875 46.5940625 295.9296875 45.9140625 C297.86328125 44.4765625 297.86328125 44.4765625 300.3671875 42.9140625 C303.73975401 40.9610709 303.73975401 40.9610709 305.9296875 37.9140625 C307.2496875 37.9140625 308.5696875 37.9140625 309.9296875 37.9140625 C310.2596875 36.9240625 310.5896875 35.9340625 310.9296875 34.9140625 C313.01171875 33.51953125 313.01171875 33.51953125 315.7421875 32.1015625 C317.2271875 31.328125 317.2271875 31.328125 318.7421875 30.5390625 C320.32 29.7346875 320.32 29.7346875 321.9296875 28.9140625 C322.9815625 28.3571875 324.0334375 27.8003125 325.1171875 27.2265625 C330.1292631 24.62028319 334.27189464 22.62442054 339.9296875 21.9140625 C339.9296875 21.2540625 339.9296875 20.5940625 339.9296875 19.9140625 C343.8896875 19.4190625 343.8896875 19.4190625 347.9296875 18.9140625 C347.9296875 18.2540625 347.9296875 17.5940625 347.9296875 16.9140625 C348.5896875 16.9140625 349.2496875 16.9140625 349.9296875 16.9140625 C350.9296875 17.9140625 351.9296875 18.9140625 352.9296875 19.9140625 C353.8784375 20.5328125 354.8271875 21.1515625 355.8046875 21.7890625 C358.96111721 23.9354347 361.29715664 26.15617302 363.9296875 28.9140625 C364.61933594 29.58308594 365.30898438 30.25210938 366.01953125 30.94140625 C366.75300781 31.65425781 367.48648438 32.36710937 368.2421875 33.1015625 C369.28826172 34.11283203 369.28826172 34.11283203 370.35546875 35.14453125 C371.9296875 36.9140625 371.9296875 36.9140625 371.9296875 38.9140625 C372.5896875 38.9140625 373.2496875 38.9140625 373.9296875 38.9140625 C375.48650785 41.38853943 376.8277213 43.95004032 378.19921875 46.53125 C380.2058528 49.29433526 381.70206027 49.96056991 384.9296875 50.9140625 C385.55280015 54.74274355 385.77203035 58.10811096 384.9296875 61.9140625 C382.01027968 64.9749145 378.57120796 66.815282 374.9296875 68.9140625 C373.77958668 69.86362053 372.64941189 70.8386603 371.5546875 71.8515625 C368.9296875 73.9140625 368.9296875 73.9140625 364.9296875 73.9140625 C364.9296875 74.5740625 364.9296875 75.2340625 364.9296875 75.9140625 C361.55871367 77.41227309 359.72526631 77.9140625 355.9296875 77.9140625 C355.5996875 78.9040625 355.2696875 79.8940625 354.9296875 80.9140625 C353.9396875 80.9140625 352.9496875 80.9140625 351.9296875 80.9140625 C351.5996875 81.5740625 351.2696875 82.2340625 350.9296875 82.9140625 C349.04053094 83.58876127 347.15078967 84.26187738 345.2578125 84.92578125 C341.87143474 86.36328725 339.00268125 88.3948421 336.0078125 90.51171875 C332.3096767 93.00726528 330.51427533 93.9140625 325.9296875 93.9140625 C325.9296875 94.5740625 325.9296875 95.2340625 325.9296875 95.9140625 C325.03507813 96.41035156 324.14046875 96.90664062 323.21875 97.41796875 C315.82951293 101.55454692 308.75378536 105.87950079 301.9296875 110.9140625 C301.23359375 111.41679687 300.5375 111.91953125 299.8203125 112.4375 C291.95629437 118.19835049 285.21048319 124.46540911 278.9296875 131.9140625 C277.72375054 133.29116471 276.51543344 134.66618643 275.3046875 136.0390625 C274.72332031 136.70679688 274.14195312 137.37453125 273.54296875 138.0625 C272.20053606 139.60320967 270.84765958 141.13481195 269.4921875 142.6640625 C263.03711226 150.5678015 258.25161043 158.63265087 254.9375 168.296875 C253.9296875 170.9140625 253.9296875 170.9140625 251.9296875 172.9140625 C250.98321489 175.66207643 250.14075286 178.36730416 249.3671875 181.1640625 C249.14393799 181.96440918 248.92068848 182.76475586 248.69067383 183.58935547 C246.80444903 190.70315794 246.06003002 197.5437852 245.9296875 204.9140625 C246.60128906 204.62273437 247.27289062 204.33140625 247.96484375 204.03125 C267.03582285 196.20599664 287.67162281 192.29399956 307.9296875 188.9140625 C309.01282227 188.72497314 310.09595703 188.53588379 311.21191406 188.34106445 C321.97302712 186.66291088 332.65403752 186.57558518 343.52539062 186.59838867 C346.66051228 186.60154321 349.79468203 186.5780246 352.9296875 186.55273438 C365.55850735 186.51281049 377.54140216 187.47514427 389.9296875 189.9140625 C391.0007373 190.11281982 392.07178711 190.31157715 393.17529297 190.51635742 C405.99467525 192.99025362 417.98899647 196.66036693 429.9296875 201.9140625 C430.7040918 202.24921875 431.47849609 202.584375 432.27636719 202.9296875 C447.73113816 209.68366813 461.89191128 218.18583521 474.9296875 228.9140625 C476.67868893 230.31114685 478.42872086 231.70694193 480.1796875 233.1015625 C481.76328672 234.37206449 483.34662356 235.64289361 484.9296875 236.9140625 C485.85265625 237.61144531 486.775625 238.30882812 487.7265625 239.02734375 C488.81710937 239.96126953 488.81710937 239.96126953 489.9296875 240.9140625 C489.9296875 241.5740625 489.9296875 242.2340625 489.9296875 242.9140625 C490.50243408 243.1622876 491.07518066 243.4105127 491.6652832 243.66625977 C494.27673572 245.10530385 496.04876411 246.77414998 498.16015625 248.87890625 C499.35801758 250.07060425 499.35801758 250.07060425 500.58007812 251.28637695 C501.41732422 252.13288818 502.25457031 252.97939941 503.1171875 253.8515625 C503.97634766 254.71676514 504.83550781 255.58196777 505.72070312 256.47338867 C511.5264184 262.37030187 516.90560407 268.33513701 521.9296875 274.9140625 C522.77743335 275.97467104 523.62786119 277.03313951 524.48046875 278.08984375 C534.41910796 290.46163801 543.61054185 303.39792088 551.9296875 316.9140625 C552.58582031 317.96078125 553.24195313 319.0075 553.91796875 320.0859375 C558.17125198 326.91041455 562.15442745 333.81621147 565.9296875 340.9140625 C566.64889958 342.22702298 567.36901657 343.53948802 568.08984375 344.8515625 C572.48068766 352.90837738 576.32458577 360.93725798 579.6015625 369.5078125 C580.77023852 372.50512277 582.04805601 375.38588747 583.4296875 378.2890625 C586.43824123 384.81237107 588.75131253 391.56305442 591.06005859 398.35644531 C591.67388606 400.16173912 592.29178894 401.96564969 592.91259766 403.76855469 C597.13700284 416.04579444 601.08750257 428.23822167 603.9296875 440.9140625 C604.11917969 441.72101563 604.30867187 442.52796875 604.50390625 443.359375 C605.00664517 445.53925096 605.47026949 447.72464855 605.9296875 449.9140625 C606.1771875 451.03039062 606.4246875 452.14671875 606.6796875 453.296875 C608.51619886 461.8966926 609.53679274 470.12134876 609.9296875 478.9140625 C610.5896875 478.9140625 611.2496875 478.9140625 611.9296875 478.9140625 C611.9296875 503.6640625 611.9296875 528.4140625 611.9296875 553.9140625 C611.2696875 553.9140625 610.6096875 553.9140625 609.9296875 553.9140625 C609.87361328 554.98720703 609.87361328 554.98720703 609.81640625 556.08203125 C609.29744974 563.94778385 607.82897003 571.27777191 605.9296875 578.9140625 C605.42730727 581.21262408 604.93780959 583.51324904 604.45703125 585.81640625 C603.76483002 588.56982892 602.83044107 591.22125026 601.9296875 593.9140625 C601.23291199 596.21963581 600.55433598 598.53022441 599.87524414 600.84106445 C595.82902615 614.57474928 591.27073389 627.7215584 585.02197266 640.63525391 C583.76665994 643.25418302 582.54132132 645.88625119 581.31640625 648.51953125 C576.85154688 658.06546922 572.36693813 667.33349075 566.63671875 676.19140625 C564.51315307 679.57842062 562.81379588 683.10157978 561.08203125 686.69921875 C559.34709333 690.03382824 557.17450566 692.90128024 554.9296875 695.9140625 C554.50042969 696.65011719 554.07117188 697.38617187 553.62890625 698.14453125 C551.42293558 701.74000989 548.91387668 705.05466028 546.3671875 708.4140625 C545.56873413 709.47137573 545.56873413 709.47137573 544.75415039 710.55004883 C543.66557621 711.98962932 542.57565692 713.42819369 541.484375 714.86572266 C540.08759643 716.70601352 538.695778 718.54994095 537.3046875 720.39453125 C529.74760138 730.36622779 521.68920238 739.88900705 513.3671875 749.23046875 C511.84903992 750.95612938 511.84903992 750.95612938 510.3671875 753.12890625 C509.655625 754.01255859 509.655625 754.01255859 508.9296875 754.9140625 C508.2696875 754.9140625 507.6096875 754.9140625 506.9296875 754.9140625 C506.71957031 755.44870117 506.50945313 755.98333984 506.29296875 756.53417969 C504.40007735 759.838604 501.79903224 762.33000753 499.1171875 764.9921875 C498.26290161 765.84934357 498.26290161 765.84934357 497.39135742 766.72381592 C496.1901207 767.92641039 494.98636753 769.12649584 493.78027344 770.32421875 C491.92927795 772.16446967 490.08923304 774.01518883 488.25 775.8671875 C487.08137026 777.03449634 485.91212066 778.20118501 484.7421875 779.3671875 C484.19006592 779.92335754 483.63794434 780.47952759 483.0690918 781.05255127 C479.15962385 784.9140625 479.15962385 784.9140625 476.9296875 784.9140625 C476.9296875 785.5740625 476.9296875 786.2340625 476.9296875 786.9140625 C475.46159245 788.22560013 473.92772966 789.46400325 472.3671875 790.6640625 C469.14112875 793.17169398 465.98502212 795.70108039 462.9296875 798.4140625 C459.9296875 800.9140625 459.9296875 800.9140625 457.9296875 800.9140625 C457.9296875 801.5740625 457.9296875 802.2340625 457.9296875 802.9140625 C456.36010742 804.20751953 456.36010742 804.20751953 454.16015625 805.671875 C453.35827881 806.21175049 452.55640137 806.75162598 451.73022461 807.30786133 C450.86792236 807.87915771 450.00562012 808.4504541 449.1171875 809.0390625 C447.37145848 810.21084431 445.62666267 811.38401765 443.8828125 812.55859375 C443.03267578 813.1304541 442.18253906 813.70231445 441.30664062 814.29150391 C437.40581307 816.95429149 433.62954204 819.77142685 429.86328125 822.62109375 C427.9296875 823.9140625 427.9296875 823.9140625 425.9296875 823.9140625 C425.9296875 824.5740625 425.9296875 825.2340625 425.9296875 825.9140625 C424.55615234 827.0715332 424.55615234 827.0715332 422.640625 828.33984375 C421.94582031 828.80712891 421.25101563 829.27441406 420.53515625 829.75585938 C419.79910156 830.24119141 419.06304688 830.72652344 418.3046875 831.2265625 C412.39231549 835.1289741 412.39231549 835.1289741 406.84375 839.51953125 C404.24351411 841.65618621 401.66097 843.29573856 398.71533203 844.90869141 C395.65256876 846.63311842 392.77482697 848.63046608 389.8671875 850.6015625 C388.5487128 851.4864758 387.22968928 852.37057185 385.91015625 853.25390625 C385.24806152 853.69718262 384.5859668 854.14045898 383.90380859 854.59716797 C376.02663158 859.85186656 368.12865598 864.95652519 359.75390625 869.39453125 C356.54071781 871.12334218 353.39579441 872.95391272 350.2421875 874.7890625 C336.58021589 882.66066605 322.21690322 889.26922171 307.9296875 895.9140625 C307.10170654 896.30102295 306.27372559 896.6879834 305.4206543 897.08666992 C297.8357815 900.58861441 290.124666 903.75625781 282.3671875 906.8515625 C281.70738892 907.11518585 281.04759033 907.3788092 280.36779785 907.65042114 C266.15868926 913.3146077 251.90972489 918.27609176 237.11425781 922.17944336 C232.25750408 923.47273202 227.61073547 925.08934579 222.9296875 926.9140625 C217.23426591 929.02281037 211.9904278 930.36308611 205.9296875 930.9140625 C205.9296875 931.5740625 205.9296875 932.2340625 205.9296875 932.9140625 C185.7996875 932.9140625 165.6696875 932.9140625 144.9296875 932.9140625 C144.9296875 932.2540625 144.9296875 931.5940625 144.9296875 930.9140625 C143.86633179 930.76167114 143.86633179 930.76167114 142.78149414 930.60620117 C134.78560683 929.37741426 127.12985798 927.48526415 119.3671875 925.2265625 C117.52846069 924.69482422 117.52846069 924.69482422 115.65258789 924.15234375 C94.36116893 917.89714295 73.9885556 909.36190806 53.9296875 899.9140625 C52.56948797 899.2906237 51.20878058 898.66829213 49.84765625 898.046875 C41.78430188 894.34263212 34.00018396 890.40653537 26.37109375 885.87109375 C23.69991096 884.35206699 21.05602806 882.99496742 18.29296875 881.6640625 C12.08949885 878.59471936 6.35236945 874.86863824 0.5546875 871.1015625 C-0.49203125 870.42802734 -1.53875 869.75449219 -2.6171875 869.06054688 C-8.91008274 865.001241 -15.1564267 860.87580866 -21.37646484 856.70581055 C-24.73169585 854.47415925 -28.1214244 852.30005885 -31.5234375 850.140625 C-32.03390625 849.73585938 -32.544375 849.33109375 -33.0703125 848.9140625 C-33.0703125 848.2540625 -33.0703125 847.5940625 -33.0703125 846.9140625 C-33.7303125 846.7078125 -34.3903125 846.5015625 -35.0703125 846.2890625 C-38.47717548 844.72758363 -41.12011452 842.72968142 -44.06640625 840.4375 C-45.8556773 839.07723546 -47.6692087 837.85955567 -49.5703125 836.6640625 C-50.8078125 835.7978125 -50.8078125 835.7978125 -52.0703125 834.9140625 C-52.0703125 834.2540625 -52.0703125 833.5940625 -52.0703125 832.9140625 C-52.63621094 832.65753906 -53.20210937 832.40101563 -53.78515625 832.13671875 C-56.33286715 830.77358454 -58.39347388 829.17771179 -60.6328125 827.3515625 C-61.95152344 826.27841797 -61.95152344 826.27841797 -63.296875 825.18359375 C-64.21210938 824.43464844 -65.12734375 823.68570313 -66.0703125 822.9140625 C-66.96492187 822.19605469 -67.85953125 821.47804688 -68.78125 820.73828125 C-74.67515561 815.9843144 -80.31267217 811.03594332 -85.85546875 805.8828125 C-87.90710371 803.88734462 -87.90710371 803.88734462 -90.0703125 802.9140625 C-90.0703125 802.2540625 -90.0703125 801.5940625 -90.0703125 800.9140625 C-90.61816406 800.69363281 -91.16601562 800.47320313 -91.73046875 800.24609375 C-94.80580244 798.49536121 -97.07189971 796.12459184 -99.5078125 793.6015625 C-99.97251953 793.12783203 -100.43722656 792.65410156 -100.91601562 792.16601562 C-102.30354008 790.75139864 -103.68694757 789.33274738 -105.0703125 787.9140625 C-107.82613259 785.14488625 -110.59752495 782.39194105 -113.375 779.64453125 C-119.49910412 773.57661158 -125.52036054 767.51780281 -131.0703125 760.9140625 C-132.0612787 759.76196921 -133.05360225 758.61104279 -134.046875 757.4609375 C-135.13816973 756.19544089 -136.22931439 754.92981484 -137.3203125 753.6640625 C-138.10075928 752.75914062 -138.10075928 752.75914062 -138.89697266 751.8359375 C-146.0703125 743.47520579 -146.0703125 743.47520579 -146.0703125 740.9140625 C-146.7303125 740.9140625 -147.3903125 740.9140625 -148.0703125 740.9140625 C-149.47143555 739.34448242 -149.47143555 739.34448242 -151.08203125 737.14453125 C-151.67153564 736.34362061 -152.26104004 735.54270996 -152.8684082 734.7175293 C-153.49191162 733.85426025 -154.11541504 732.99099121 -154.7578125 732.1015625 C-155.71337036 730.79022339 -155.71337036 730.79022339 -156.68823242 729.45239258 C-160.4475645 724.25964958 -164.08647821 719.02792162 -167.44140625 713.5625 C-169.01339485 711.00660487 -170.64679821 708.49697739 -172.29345703 705.98876953 C-177.17077101 698.52703738 -181.63559045 690.87863751 -185.90234375 683.05322266 C-186.68891373 681.61260265 -187.48069175 680.17481541 -188.27734375 678.73974609 C-203.45832233 651.34771847 -213.67653121 622.10352225 -220.47363281 591.59033203 C-220.85940979 589.86001813 -221.25400084 588.13163546 -221.65917969 586.40576172 C-222.85042549 581.2825493 -223.43457582 576.35732279 -223.7265625 571.1015625 C-223.84 570.3796875 -223.9534375 569.6578125 -224.0703125 568.9140625 C-224.7303125 568.5840625 -225.3903125 568.2540625 -226.0703125 567.9140625 C-226.0703125 538.8740625 -226.0703125 509.8340625 -226.0703125 479.9140625 C-225.4103125 479.9140625 -224.7503125 479.9140625 -224.0703125 479.9140625 C-224.01967651 478.77287964 -224.01967651 478.77287964 -223.96801758 477.60864258 C-223.44301202 468.69430368 -221.8175178 460.27319628 -219.7578125 451.6015625 C-219.43713857 450.22377362 -219.1170748 448.84584258 -218.79760742 447.46777344 C-217.90080792 443.6135677 -216.98617899 439.76377943 -216.0703125 435.9140625 C-215.66655831 434.18622323 -215.26289313 432.45836316 -214.859375 430.73046875 C-213.31158838 424.21574837 -211.52739706 417.88313397 -209.09765625 411.63671875 C-208.23374321 409.34718496 -207.44056314 407.05677819 -206.671875 404.734375 C-198.6964904 380.63900867 -188.82539594 357.87393764 -176.0703125 335.9140625 C-175.6151123 335.13015137 -175.15991211 334.34624023 -174.69091797 333.53857422 C-169.03207539 323.87532154 -162.94141001 314.69028248 -156.1875 305.7578125 C-154.1120119 303.14364084 -154.1120119 303.14364084 -153.0703125 300.9140625 C-152.4103125 300.9140625 -151.7503125 300.9140625 -151.0703125 300.9140625 C-150.81765625 300.35332031 -150.565 299.79257812 -150.3046875 299.21484375 C-147.87335147 294.68301805 -144.32963877 290.8700849 -141.0703125 286.9140625 C-140.18472656 285.82158203 -140.18472656 285.82158203 -139.28125 284.70703125 C-137.92603685 283.06809121 -136.50426122 281.48457776 -135.0703125 279.9140625 C-134.4103125 279.9140625 -133.7503125 279.9140625 -133.0703125 279.9140625 C-133.0703125 279.2540625 -133.0703125 278.5940625 -133.0703125 277.9140625 C-132.4103125 277.9140625 -131.7503125 277.9140625 -131.0703125 277.9140625 C-130.7403125 276.9240625 -130.4103125 275.9340625 -130.0703125 274.9140625 C-129.4103125 274.9140625 -128.7503125 274.9140625 -128.0703125 274.9140625 C-128.0703125 274.2540625 -128.0703125 273.5940625 -128.0703125 272.9140625 C-126.56640625 271.43359375 -126.56640625 271.43359375 -124.5078125 269.7265625 C-121.74940222 267.38917273 -119.1386108 265.01985745 -116.6328125 262.4140625 C-112.79424669 258.51358433 -108.62046077 254.96293985 -104.0703125 251.9140625 C-103.4103125 251.9140625 -102.7503125 251.9140625 -102.0703125 251.9140625 C-102.0703125 251.2540625 -102.0703125 250.5940625 -102.0703125 249.9140625 C-98.6129246 246.98139251 -94.80188537 244.48546876 -91.0703125 241.9140625 C-90.47105957 241.49995117 -89.87180664 241.08583984 -89.25439453 240.65917969 C-81.41413488 235.26836063 -73.51579361 230.31442172 -65.0703125 225.9140625 C-63.84906635 225.24958574 -62.62909349 224.58276537 -61.41015625 223.9140625 C-55.21943831 220.53213232 -49.10576856 217.31103215 -42.48828125 214.828125 C-39.85240002 213.83168524 -37.28177308 212.71983695 -34.6953125 211.6015625 C-15.05476538 203.42847951 4.8518497 197.79564088 25.8046875 194.2265625 C26.98530762 194.02401855 28.16592773 193.82147461 29.38232422 193.61279297 C47.93996305 190.5965792 66.4647799 189.58952606 85.2421875 189.2890625 C87.26628996 189.25072784 89.29037882 189.21166826 91.31445312 189.171875 C96.18608274 189.07763122 101.05778715 188.99301945 105.9296875 188.9140625 C104.68759521 188.5113916 103.44550293 188.1087207 102.16577148 187.69384766 C100.52319713 187.15551018 98.88070467 186.6169228 97.23828125 186.078125 C96.42113647 185.81394775 95.6039917 185.54977051 94.76208496 185.27758789 C89.82511469 183.65149751 85.4343399 181.78678878 80.9921875 179.0625 C77.72885503 177.24541715 74.2290168 176.16828411 70.70703125 174.953125 C67.06159922 173.58929248 63.66134256 171.87014894 60.21875 170.0625 C57.89838096 168.85648798 57.89838096 168.85648798 55.2578125 167.85546875 C52.9296875 166.9140625 52.9296875 166.9140625 51.0546875 165.4765625 C48.7944864 163.81464993 46.49169728 162.88357279 43.91796875 161.80395508 C40.44604818 160.25003189 37.16940354 158.3586057 33.8671875 156.4765625 C32.8452832 155.90325195 32.8452832 155.90325195 31.80273438 155.31835938 C17.765149 147.37586391 1.61523472 136.25771187 -9.0703125 123.9140625 C-9.0703125 123.2540625 -9.0703125 122.5940625 -9.0703125 121.9140625 C-9.7303125 121.9140625 -10.3903125 121.9140625 -11.0703125 121.9140625 C-12.42413399 120.42668015 -13.70171136 118.86975699 -14.9453125 117.2890625 C-17.57698517 113.98466322 -20.21285191 110.71926503 -23.015625 107.55859375 C-29.90920565 99.77852146 -35.71366518 91.81300886 -41.0703125 82.9140625 C-41.85109417 81.63773422 -42.632353 80.36169773 -43.4140625 79.0859375 C-49.47556199 69.1401507 -55.06089247 58.99368382 -60.3203125 48.6015625 C-60.66199463 47.93133057 -61.00367676 47.26109863 -61.35571289 46.57055664 C-62.86619644 43.55448028 -64.13416465 40.71733492 -65.1796875 37.49609375 C-65.78467405 34.76533455 -65.78467405 34.76533455 -68.0703125 33.9140625 C-68.0703125 28.9640625 -68.0703125 24.0140625 -68.0703125 18.9140625 C-67.0803125 18.9140625 -66.0903125 18.9140625 -65.0703125 18.9140625 C-64.8640625 18.3571875 -64.6578125 17.8003125 -64.4453125 17.2265625 C-60.24657282 10.16504577 -51.59074138 6.42087213 -44.0703125 3.9140625 C-42.44852095 3.73606099 -40.82254861 3.59486305 -39.1953125 3.4765625 C-34.93817926 3.12835371 -30.78124231 2.56510908 -26.5703125 1.8515625 C-21.44969298 1.02152167 -16.59010687 0.76225006 -11.41015625 0.94140625 C-9.12977595 1.01454229 -9.12977595 1.01454229 -7.2409668 0.40698242 C-4.72608124 -0.16410676 -2.57534402 -0.11944309 0 0 Z M136.9296875 192.9140625 C136.9296875 193.2440625 136.9296875 193.5740625 136.9296875 193.9140625 C140.5596875 194.2440625 144.1896875 194.5740625 147.9296875 194.9140625 C143.71339616 192.80591683 141.53177975 192.73705895 136.9296875 192.9140625 Z M149.9296875 194.9140625 C153.60176984 197.06633698 157.50446325 197.79329178 161.6171875 198.6640625 C168.80620714 200.24690118 175.62136421 202.41054786 182.4831543 205.07128906 C186.63045124 206.72989336 186.63045124 206.72989336 190.9296875 205.9140625 C181.08215235 196.33267695 166.7280554 194.83075027 153.4921875 194.7890625 C151.72875 194.8509375 151.72875 194.8509375 149.9296875 194.9140625 Z " fill="#F98F97" transform="translate(347.0703125,72.0859375)"/>
<path d="M0 0 C0.9796875 0.04382813 1.959375 0.08765625 2.96875 0.1328125 C4.49628906 0.21015625 4.49628906 0.21015625 6.0546875 0.2890625 C7.04984375 0.33289063 8.045 0.37671875 9.0703125 0.421875 C17.63546473 0.82441479 26.01606864 1.36303201 34.36328125 3.37890625 C38.79836154 4.30372512 43.29869097 4.7978121 47.79296875 5.3515625 C50.64216454 5.86250172 52.41133098 6.59619373 54.9296875 7.9140625 C56.98296999 8.2554744 56.98296999 8.2554744 59.1171875 8.3515625 C63.15470663 8.73233666 66.60600662 9.65882474 70.41015625 11.03125 C73.40842971 12.08180783 76.44346775 12.95839662 79.4921875 13.8515625 C83.32437783 15.01418734 86.87863909 16.24884159 90.4296875 18.1015625 C93.42044352 19.65034687 95.62625586 20.50113354 98.9296875 20.9140625 C98.9296875 21.5740625 98.9296875 22.2340625 98.9296875 22.9140625 C99.78820312 23.01589844 100.64671875 23.11773437 101.53125 23.22265625 C105.21464505 23.97203662 107.97991958 25.24029481 111.3046875 26.9765625 C112.36429688 27.52441406 113.42390625 28.07226562 114.515625 28.63671875 C115.31226563 29.05824219 116.10890625 29.47976562 116.9296875 29.9140625 C116.9296875 30.5740625 116.9296875 31.2340625 116.9296875 31.9140625 C117.661875 32.0275 118.3940625 32.1409375 119.1484375 32.2578125 C130.75916975 34.99742348 146.14095434 47.25991454 153.9296875 55.9140625 C153.9296875 56.5740625 153.9296875 57.2340625 153.9296875 57.9140625 C154.5896875 57.9140625 155.2496875 57.9140625 155.9296875 57.9140625 C155.9296875 58.5740625 155.9296875 59.2340625 155.9296875 59.9140625 C156.9196875 60.2440625 157.9096875 60.5740625 158.9296875 60.9140625 C158.9296875 61.5740625 158.9296875 62.2340625 158.9296875 62.9140625 C159.5896875 62.9140625 160.2496875 62.9140625 160.9296875 62.9140625 C170.05391415 72.62439399 176.25139602 83.95803407 181.9296875 95.9140625 C182.2488916 96.57647949 182.5680957 97.23889648 182.89697266 97.92138672 C191.65876604 116.45246035 197.67521776 138.00109189 200.39453125 158.28515625 C200.79314609 160.9881722 201.28161775 163.4769082 201.95703125 166.109375 C203.81521495 173.37793293 204.04834056 180.43891941 203.9296875 187.9140625 C204.5896875 187.9140625 205.2496875 187.9140625 205.9296875 187.9140625 C206.2596875 190.8840625 206.5896875 193.8540625 206.9296875 196.9140625 C208.95024593 192.52154417 210.33863985 188.76065327 210.9296875 183.9140625 C211.5896875 183.9140625 212.2496875 183.9140625 212.9296875 183.9140625 C213.0328125 182.9034375 213.1359375 181.8928125 213.2421875 180.8515625 C213.82451062 177.51643918 214.64211884 174.90656618 216.046875 171.8515625 C217.06021826 169.62758791 217.96565883 167.3731308 218.8671875 165.1015625 C219.36798828 163.84279297 219.36798828 163.84279297 219.87890625 162.55859375 C220.22566406 161.68589844 220.57242187 160.81320313 220.9296875 159.9140625 C221.67924641 158.03888612 222.42923032 156.16387956 223.1796875 154.2890625 C223.68242188 153.03222656 223.68242188 153.03222656 224.1953125 151.75 C224.43765625 151.14414063 224.68 150.53828125 224.9296875 149.9140625 C225.5896875 149.9140625 226.2496875 149.9140625 226.9296875 149.9140625 C227.0328125 149.1921875 227.1359375 148.4703125 227.2421875 147.7265625 C227.9296875 144.9140625 227.9296875 144.9140625 229.3046875 142.6640625 C231.50187217 138.94574998 232.66618567 135.02716422 233.9296875 130.9140625 C234.5896875 130.9140625 235.2496875 130.9140625 235.9296875 130.9140625 C236.0534375 130.1715625 236.1771875 129.4290625 236.3046875 128.6640625 C236.88455451 126.11264765 237.66677489 124.1873052 238.9296875 121.9140625 C239.5896875 121.9140625 240.2496875 121.9140625 240.9296875 121.9140625 C240.9296875 120.2640625 240.9296875 118.6140625 240.9296875 116.9140625 C241.5896875 116.9140625 242.2496875 116.9140625 242.9296875 116.9140625 C243.043125 116.3365625 243.1565625 115.7590625 243.2734375 115.1640625 C244.1957859 112.00172515 245.9496416 109.62854942 247.7734375 106.9140625 C248.93646295 104.9023428 249.48401602 103.1829355 249.9296875 100.9140625 C250.5896875 100.9140625 251.2496875 100.9140625 251.9296875 100.9140625 C251.9296875 99.5940625 251.9296875 98.2740625 251.9296875 96.9140625 C252.5896875 96.9140625 253.2496875 96.9140625 253.9296875 96.9140625 C255.13596758 94.58192102 256.0951613 92.41764111 256.9296875 89.9140625 C257.5896875 89.9140625 258.2496875 89.9140625 258.9296875 89.9140625 C259.2596875 88.9240625 259.5896875 87.9340625 259.9296875 86.9140625 C260.5896875 86.9140625 261.2496875 86.9140625 261.9296875 86.9140625 C261.5996875 85.9240625 261.2696875 84.9340625 260.9296875 83.9140625 C262.4146875 83.4190625 262.4146875 83.4190625 263.9296875 82.9140625 C264.21457031 82.19863281 264.49945312 81.48320312 264.79296875 80.74609375 C266.25126523 77.11288086 268.56522168 74.5046535 271.1171875 71.6015625 C271.61404053 71.02760742 272.11089355 70.45365234 272.62280273 69.86230469 C273.61084752 68.72219125 274.60142267 67.58426492 275.59472656 66.44873047 C276.69791207 65.18051099 277.78136339 63.89515471 278.859375 62.60546875 C283.38577508 57.22360072 288.4067225 52.27589226 293.9296875 47.9140625 C294.5896875 47.9140625 295.2496875 47.9140625 295.9296875 47.9140625 C295.9296875 47.2540625 295.9296875 46.5940625 295.9296875 45.9140625 C297.86328125 44.4765625 297.86328125 44.4765625 300.3671875 42.9140625 C303.73975401 40.9610709 303.73975401 40.9610709 305.9296875 37.9140625 C307.2496875 37.9140625 308.5696875 37.9140625 309.9296875 37.9140625 C310.2596875 36.9240625 310.5896875 35.9340625 310.9296875 34.9140625 C313.01171875 33.51953125 313.01171875 33.51953125 315.7421875 32.1015625 C317.2271875 31.328125 317.2271875 31.328125 318.7421875 30.5390625 C320.32 29.7346875 320.32 29.7346875 321.9296875 28.9140625 C322.9815625 28.3571875 324.0334375 27.8003125 325.1171875 27.2265625 C330.1292631 24.62028319 334.27189464 22.62442054 339.9296875 21.9140625 C339.9296875 21.2540625 339.9296875 20.5940625 339.9296875 19.9140625 C343.8896875 19.4190625 343.8896875 19.4190625 347.9296875 18.9140625 C347.9296875 18.2540625 347.9296875 17.5940625 347.9296875 16.9140625 C348.5896875 16.9140625 349.2496875 16.9140625 349.9296875 16.9140625 C350.9296875 17.9140625 351.9296875 18.9140625 352.9296875 19.9140625 C353.8784375 20.5328125 354.8271875 21.1515625 355.8046875 21.7890625 C358.96111721 23.9354347 361.29715664 26.15617302 363.9296875 28.9140625 C364.96416016 29.91759766 364.96416016 29.91759766 366.01953125 30.94140625 C366.75300781 31.65425781 367.48648437 32.36710937 368.2421875 33.1015625 C369.28826172 34.11283203 369.28826172 34.11283203 370.35546875 35.14453125 C371.9296875 36.9140625 371.9296875 36.9140625 371.9296875 38.9140625 C372.5896875 38.9140625 373.2496875 38.9140625 373.9296875 38.9140625 C375.48650785 41.38853943 376.8277213 43.95004032 378.19921875 46.53125 C380.2058528 49.29433526 381.70206027 49.96056991 384.9296875 50.9140625 C385.55280015 54.74274355 385.77203035 58.10811096 384.9296875 61.9140625 C382.01027968 64.9749145 378.57120796 66.815282 374.9296875 68.9140625 C373.77958668 69.86362053 372.64941189 70.8386603 371.5546875 71.8515625 C368.9296875 73.9140625 368.9296875 73.9140625 364.9296875 73.9140625 C364.9296875 74.5740625 364.9296875 75.2340625 364.9296875 75.9140625 C361.55871367 77.41227309 359.72526631 77.9140625 355.9296875 77.9140625 C355.5996875 78.9040625 355.2696875 79.8940625 354.9296875 80.9140625 C353.9396875 80.9140625 352.9496875 80.9140625 351.9296875 80.9140625 C351.5996875 81.5740625 351.2696875 82.2340625 350.9296875 82.9140625 C349.04053094 83.58876127 347.15078967 84.26187738 345.2578125 84.92578125 C341.87143474 86.36328725 339.00268125 88.3948421 336.0078125 90.51171875 C332.3096767 93.00726528 330.51427533 93.9140625 325.9296875 93.9140625 C325.9296875 94.5740625 325.9296875 95.2340625 325.9296875 95.9140625 C325.03507812 96.41035156 324.14046875 96.90664062 323.21875 97.41796875 C315.82951293 101.55454692 308.75378536 105.87950079 301.9296875 110.9140625 C301.23359375 111.41679687 300.5375 111.91953125 299.8203125 112.4375 C291.95629437 118.19835049 285.21048319 124.46540911 278.9296875 131.9140625 C277.72375054 133.29116471 276.51543344 134.66618643 275.3046875 136.0390625 C274.72332031 136.70679688 274.14195312 137.37453125 273.54296875 138.0625 C272.20053606 139.60320967 270.84765958 141.13481195 269.4921875 142.6640625 C263.03711226 150.5678015 258.25161043 158.63265087 254.9375 168.296875 C253.9296875 170.9140625 253.9296875 170.9140625 251.9296875 172.9140625 C250.97900503 175.62099015 250.13803984 178.28071825 249.3671875 181.0390625 C249.14248779 181.83642822 248.91778809 182.63379395 248.6862793 183.45532227 C246.88291328 190.25676121 246.30140804 196.73780888 246.16796875 203.75390625 C245.9296875 206.9140625 245.9296875 206.9140625 243.9296875 209.9140625 C243.93530322 211.39380525 243.98188153 212.87360126 244.0546875 214.3515625 C243.49266285 221.05641797 239.13079632 225.13797331 234.34375 229.3984375 C229.69250988 233.1098449 224.74408873 234.19675611 218.9296875 234.9140625 C217.26094131 235.23682411 215.59350854 235.56680403 213.9296875 235.9140625 C213.9296875 236.5740625 213.9296875 237.2340625 213.9296875 237.9140625 C210.9596875 237.9140625 207.9896875 237.9140625 204.9296875 237.9140625 C204.9296875 229.9940625 204.9296875 222.0740625 204.9296875 213.9140625 C202.9496875 213.5840625 200.9696875 213.2540625 198.9296875 212.9140625 C196.55078125 211.42578125 196.55078125 211.42578125 194.3671875 209.6015625 C193.58988281 208.96992188 192.81257813 208.33828125 192.01171875 207.6875 C190.49863747 206.39868405 189.01663988 205.07309759 187.5546875 203.7265625 C179.51910414 198.17818351 169.98101945 197.1088669 160.4921875 196.2265625 C158.20161008 195.99559063 155.9112346 195.76260488 153.62109375 195.52734375 C152.62279541 195.43235596 151.62449707 195.33736816 150.59594727 195.23950195 C148.28563332 194.95750868 146.17965218 194.47902265 143.9296875 193.9140625 C141.84993321 193.8029777 139.7697351 193.69592024 137.68823242 193.62475586 C116.88764564 192.89603982 97.06167381 188.54852809 78.9296875 177.9140625 C77.17837284 177.21703427 75.4075482 176.56610464 73.6171875 175.9765625 C68.93553597 174.34732201 64.60458686 172.36543106 60.21875 170.0625 C57.89838096 168.85648798 57.89838096 168.85648798 55.2578125 167.85546875 C52.9296875 166.9140625 52.9296875 166.9140625 51.0546875 165.4765625 C48.7944864 163.81464993 46.49169728 162.88357279 43.91796875 161.80395508 C40.44604818 160.25003189 37.16940354 158.3586057 33.8671875 156.4765625 C33.18591797 156.09435547 32.50464844 155.71214844 31.80273438 155.31835938 C17.765149 147.37586391 1.61523472 136.25771187 -9.0703125 123.9140625 C-9.0703125 123.2540625 -9.0703125 122.5940625 -9.0703125 121.9140625 C-9.7303125 121.9140625 -10.3903125 121.9140625 -11.0703125 121.9140625 C-12.42413399 120.42668015 -13.70171136 118.86975699 -14.9453125 117.2890625 C-17.57698517 113.98466322 -20.21285191 110.71926503 -23.015625 107.55859375 C-29.90920565 99.77852146 -35.71366518 91.81300886 -41.0703125 82.9140625 C-41.85109417 81.63773422 -42.632353 80.36169773 -43.4140625 79.0859375 C-49.47556199 69.1401507 -55.06089247 58.99368382 -60.3203125 48.6015625 C-60.66199463 47.93133057 -61.00367676 47.26109863 -61.35571289 46.57055664 C-62.86619644 43.55448028 -64.13416465 40.71733492 -65.1796875 37.49609375 C-65.78467405 34.76533455 -65.78467405 34.76533455 -68.0703125 33.9140625 C-68.0703125 28.9640625 -68.0703125 24.0140625 -68.0703125 18.9140625 C-67.0803125 18.9140625 -66.0903125 18.9140625 -65.0703125 18.9140625 C-64.8640625 18.3571875 -64.6578125 17.8003125 -64.4453125 17.2265625 C-60.24657282 10.16504577 -51.59074138 6.42087213 -44.0703125 3.9140625 C-42.44852095 3.73606099 -40.82254861 3.59486305 -39.1953125 3.4765625 C-34.93817926 3.12835371 -30.78124231 2.56510908 -26.5703125 1.8515625 C-21.44969298 1.02152167 -16.59010687 0.76225006 -11.41015625 0.94140625 C-9.12977595 1.01454229 -9.12977595 1.01454229 -7.2409668 0.40698242 C-4.72608124 -0.16410676 -2.57534402 -0.11944309 0 0 Z " fill="#728A45" transform="translate(347.0703125,72.0859375)"/>
<path d="M0 0 C0.33 0.99 0.66 1.98 1 3 C0.01 3.66 -0.98 4.32 -2 5 C-2.391875 5.70125 -2.78375 6.4025 -3.1875 7.125 C-5.35344335 10.56063427 -7.97938358 13.06029905 -10.875 15.88671875 C-15.10261544 20.09102013 -19.10619441 24.45982958 -22.3125 29.5 C-22.869375 30.325 -23.42625 31.15 -24 32 C-24.66 32 -25.32 32 -26 32 C-26.309375 33.0828125 -26.309375 33.0828125 -26.625 34.1875 C-28.0845525 37.1729483 -29.67395724 38.58545134 -32.3671875 40.49609375 C-34.73852056 42.68021631 -36.24862089 45.30077715 -38 48 C-40.2340661 51.0207091 -42.50713216 54.00937928 -44.78125 57 C-46.29530798 59.04717699 -47.75208276 61.13766142 -49.15625 63.26171875 C-51 66 -51 66 -53 67.8125 C-55.51774068 70.56627887 -56.61783487 73.43079862 -57.97265625 76.87890625 C-59 79 -59 79 -60.50390625 80.4921875 C-62.36799852 82.37088102 -62.97493675 84.08135218 -63.875 86.5625 C-68.9888658 99.9888658 -68.9888658 99.9888658 -72 103 C-72.32352982 104.53529607 -72.60872651 106.07874517 -72.875 107.625 C-73.72814148 112.12338234 -75.02891255 115.87863534 -77 120 C-78.32 120 -79.64 120 -81 120 C-81.103125 121.03125 -81.20625 122.0625 -81.3125 123.125 C-81.99941409 126.99669761 -83.2583417 129.5166834 -85 133 C-85.36141955 135.32914823 -85.69699525 137.66253478 -86 140 C-86.65035814 141.34136367 -87.3162955 142.67532254 -88 144 C-88.38290462 145.99110401 -88.72604615 147.99100513 -89 150 C-89.99 150 -90.98 150 -92 150 C-92.185625 151.3921875 -92.185625 151.3921875 -92.375 152.8125 C-92.5797618 154.20886173 -92.78865157 155.60462001 -93 157 C-93.1340625 157.90363281 -93.268125 158.80726563 -93.40625 159.73828125 C-94.25288833 164.95216229 -95.28158586 168.46930976 -98 173 C-98.55535591 175.45203754 -98.93145264 177.91581563 -99.328125 180.3984375 C-100.22657354 185.21453955 -101.42144538 189.93977396 -102.625 194.6875 C-102.85558105 195.59765869 -103.08616211 196.50781738 -103.32373047 197.44555664 C-103.87973069 199.63109079 -104.43833268 201.8159165 -105 204 C-105.66 204 -106.32 204 -107 204 C-107.18175781 205.30453125 -107.36351562 206.6090625 -107.55078125 207.953125 C-108.75993013 216.43016002 -110.00594983 224.75357093 -112.27099609 233.0246582 C-113.00332967 236.01358967 -113.49412535 238.95443395 -113.9296875 242 C-115.12867815 250.04045742 -116.66990061 258.00581916 -118.23242188 265.98242188 C-118.55243164 267.66368164 -118.55243164 267.66368164 -118.87890625 269.37890625 C-119.0704126 270.3644751 -119.26191895 271.35004395 -119.45922852 272.36547852 C-121.01194325 282.80126373 -121.17534269 293.25127136 -121.203125 303.78125 C-121.20595238 304.51756149 -121.20877975 305.25387299 -121.21169281 306.01249695 C-121.22657309 309.91295716 -121.23587161 313.81338148 -121.24023438 317.71386719 C-121.24460823 320.89041701 -121.25847314 324.06669358 -121.28125 327.24316406 C-121.84679775 356.01713022 -121.84679775 356.01713022 -116 384 C-115.06414034 389.70874395 -114.87963981 395.22271089 -115 401 C-114.34 401 -113.68 401 -113 401 C-112.49161436 403.03959477 -111.99366114 405.08179138 -111.5 407.125 C-111.2215625 408.26195312 -110.943125 409.39890625 -110.65625 410.5703125 C-110.03546235 413.81466698 -109.87993232 416.70814457 -110 420 C-109.34 420 -108.68 420 -108 420 C-107.896875 421.155 -107.79375 422.31 -107.6875 423.5 C-107.31586396 426.55926477 -106.66010441 429.14784087 -105.5 432 C-103.87168769 436.0032654 -103.38358498 439.70384817 -103 444 C-102.34 444 -101.68 444 -101 444 C-101 445.98 -101 447.96 -101 450 C-100.34 450 -99.68 450 -99 450 C-98.87625 451.010625 -98.7525 452.02125 -98.625 453.0625 C-98.01914665 456.87937612 -97.12806088 460.31500112 -96 464 C-95.34 464 -94.68 464 -94 464 C-93.82984375 464.70125 -93.6596875 465.4025 -93.484375 466.125 C-93.24203125 467.07375 -92.9996875 468.0225 -92.75 469 C-92.51796875 469.928125 -92.2859375 470.85625 -92.046875 471.8125 C-91.20832151 474.36570764 -90.31159301 476.46239277 -89.08984375 478.828125 C-86.92730235 483.01574547 -85.33536571 487.29611222 -83.8125 491.75 C-83.55275391 492.49121094 -83.29300781 493.23242188 -83.02539062 493.99609375 C-81.87374328 497.31117164 -80.81605949 500.58420137 -80 504 C-83.16115776 502.63016497 -83.9927092 502.0109362 -86 499 C-86.7425 498.7525 -87.485 498.505 -88.25 498.25 C-92.9754514 496.10206755 -96.20382123 492.060698 -98.0625 487.25 C-98.81343109 484.79311342 -98.81343109 484.79311342 -101.296875 483.72265625 C-104.57886191 481.63110101 -106.0725086 479.4397595 -108.1875 476.1875 C-108.86167969 475.17042969 -109.53585937 474.15335938 -110.23046875 473.10546875 C-112 470 -112 470 -112.94921875 467.13671875 C-114.34063167 462.98317014 -116.44710249 459.41186484 -118.625 455.625 C-123.38157687 447.2193167 -127.75257466 438.67141801 -132 430 C-132.56460937 428.91976563 -133.12921875 427.83953125 -133.7109375 426.7265625 C-135.06094734 423.87108714 -135.27469077 422.11316201 -135 419 C-135.66 419 -136.32 419 -137 419 C-137.16081055 418.42145264 -137.32162109 417.84290527 -137.48730469 417.24682617 C-138.23711289 414.55912209 -138.99247101 411.87303843 -139.75 409.1875 C-140.02368408 408.21643311 -140.29736816 407.24536621 -140.5793457 406.24487305 C-141.93204353 401.50864189 -143.3351453 396.8821221 -145.1875 392.3125 C-150.18903522 378.98196191 -150.64693437 363.77666878 -151.99829102 349.75048828 C-152.11487061 348.54634277 -152.2314502 347.34219727 -152.3515625 346.1015625 C-152.45291504 345.02213379 -152.55426758 343.94270508 -152.65869141 342.83056641 C-152.89602737 340.16543745 -152.89602737 340.16543745 -153.51026917 338.32957458 C-154.23752276 334.87014058 -154.1646475 331.41601127 -154.17700195 327.89624023 C-154.18357315 327.08071182 -154.19014435 326.26518341 -154.19691467 325.42494202 C-154.21664697 322.71949146 -154.22832596 320.01409715 -154.23828125 317.30859375 C-154.24235678 316.37509661 -154.2464323 315.44159946 -154.25063133 314.47981453 C-154.27151702 309.5144587 -154.28579365 304.5491305 -154.29516602 299.58374023 C-154.30393355 295.52726792 -154.32458068 291.47114856 -154.35668945 287.41479492 C-154.57868704 258.75690591 -153.38722173 231.8592564 -146 204 C-145.34 204 -144.68 204 -144 204 C-143.87496094 202.87464844 -143.74992187 201.74929688 -143.62109375 200.58984375 C-143.02810108 195.85319753 -142.07474758 191.22485966 -141.0625 186.5625 C-140.80823242 185.37043945 -140.80823242 185.37043945 -140.54882812 184.15429688 C-140.20842424 182.56358822 -139.86479358 180.97356641 -139.51782227 179.38427734 C-139.1642025 177.75605922 -138.81868951 176.12606469 -138.48022461 174.49462891 C-138.31143799 173.69589355 -138.14265137 172.8971582 -137.96875 172.07421875 C-137.81986328 171.35709717 -137.67097656 170.63997559 -137.51757812 169.90112305 C-136.80893254 167.29818759 -135.4442094 165.26050167 -134 163 C-133.29329272 160.30745009 -133.29329272 160.30745009 -133 158 C-132.34 158 -131.68 158 -131 158 C-130.938125 157.05125 -130.87625 156.1025 -130.8125 155.125 C-129.71477176 147.47182422 -124.78560017 139.01138547 -120 133 C-119.34 133 -118.68 133 -118 133 C-117.62681641 132.22462891 -117.62681641 132.22462891 -117.24609375 131.43359375 C-115.61736104 128.25271451 -113.84171343 125.16061659 -112.0625 122.0625 C-111.71509766 121.45470703 -111.36769531 120.84691406 -111.00976562 120.22070312 C-109.47711331 117.54505587 -107.92933933 114.88447802 -106.3203125 112.25390625 C-104.87302489 109.92620843 -104.87302489 109.92620843 -103.8125 106.875 C-101.51020498 101.33510261 -97.57451182 96.76386114 -94 92 C-92.7494897 90.22952699 -91.49948788 88.45869472 -90.25 86.6875 C-79.59370445 72.05590669 -66.9067915 58.65698263 -54 46 C-51.37900307 43.38768187 -48.7675581 40.76640362 -46.16796875 38.1328125 C-40.62281258 32.52674083 -35.04417108 27.0725847 -29 22 C-28.15566406 21.26652344 -27.31132812 20.53304688 -26.44140625 19.77734375 C-18.03871243 12.58317848 -9.10546127 6.26608899 0 0 Z " fill="#FA6372" transform="translate(520,334)"/>
<path d="M0 0 C0.66 0 1.32 0 2 0 C3 1 4 2 5 3 C5.94875 3.61875 6.8975 4.2375 7.875 4.875 C11.03142971 7.0213722 13.36746914 9.24211052 16 12 C16.68964844 12.66902344 17.37929688 13.33804688 18.08984375 14.02734375 C18.82332031 14.74019531 19.55679688 15.45304687 20.3125 16.1875 C21.35857422 17.19876953 21.35857422 17.19876953 22.42578125 18.23046875 C24 20 24 20 24 22 C24.66 22 25.32 22 26 22 C27.55682035 24.47447693 28.8980338 27.03597782 30.26953125 29.6171875 C32.2761653 32.38027276 33.77237277 33.04650741 37 34 C37.62311265 37.82868105 37.84234285 41.19404846 37 45 C34.08059218 48.060852 30.64152046 49.9012195 27 52 C25.84989918 52.94955803 24.71972439 53.9245978 23.625 54.9375 C21 57 21 57 17 57 C17 57.66 17 58.32 17 59 C13.62902617 60.49821059 11.79557881 61 8 61 C7.67 61.99 7.34 62.98 7 64 C6.01 64 5.02 64 4 64 C3.67 64.66 3.34 65.32 3 66 C1.11084344 66.67469877 -0.77889783 67.34781488 -2.671875 68.01171875 C-6.05825276 69.44922475 -8.92700625 71.4807796 -11.921875 73.59765625 C-15.6200108 76.09320278 -17.41541217 77 -22 77 C-22 77.66 -22 78.32 -22 79 C-23.34191406 79.74443359 -23.34191406 79.74443359 -24.7109375 80.50390625 C-32.10017457 84.64048442 -39.17590214 88.96543829 -46 94 C-46.69609375 94.50273437 -47.3921875 95.00546875 -48.109375 95.5234375 C-55.97339313 101.28428799 -62.71920431 107.55134661 -69 115 C-70.20593696 116.37710221 -71.41425406 117.75212393 -72.625 119.125 C-73.20636719 119.79273438 -73.78773438 120.46046875 -74.38671875 121.1484375 C-75.72915144 122.68914717 -77.08202792 124.22074945 -78.4375 125.75 C-84.89257524 133.653739 -89.67807707 141.71858837 -92.9921875 151.3828125 C-94 154 -94 154 -96 156 C-96.95068247 158.70692765 -97.79164766 161.36665575 -98.5625 164.125 C-98.78719971 164.92236572 -99.01189941 165.71973145 -99.2434082 166.54125977 C-101.04677422 173.34269871 -101.62827946 179.82374638 -101.76171875 186.83984375 C-102 190 -102 190 -104 193 C-103.99438428 194.47974275 -103.94780597 195.95953876 -103.875 197.4375 C-104.43702465 204.14235547 -108.79889118 208.22391081 -113.5859375 212.484375 C-118.23717762 216.1957824 -123.18559877 217.28269361 -129 218 C-130.66874619 218.32276161 -132.33617896 218.65274153 -134 219 C-134 219.66 -134 220.32 -134 221 C-136.97 221 -139.94 221 -143 221 C-143.02485982 216.42847075 -143.04293526 211.85698153 -143.05493164 207.28540039 C-143.05993684 205.73265904 -143.06674301 204.17992234 -143.07543945 202.62719727 C-143.08767307 200.38556768 -143.09326657 198.14400082 -143.09765625 195.90234375 C-143.10281754 195.21663803 -143.10797882 194.53093231 -143.11329651 193.82444763 C-143.11379555 189.46271559 -142.84651483 185.2826638 -142 181 C-141.01 180.01 -141.01 180.01 -140 179 C-139.38943913 176.97786722 -138.85636005 174.93172022 -138.375 172.875 C-137.98441406 171.23144531 -137.98441406 171.23144531 -137.5859375 169.5546875 C-137.29589844 168.29011719 -137.29589844 168.29011719 -137 167 C-136.34 167 -135.68 167 -135 167 C-134.896875 165.989375 -134.79375 164.97875 -134.6875 163.9375 C-134.10517688 160.60237668 -133.28756866 157.99250368 -131.8828125 154.9375 C-130.86946924 152.71352541 -129.96402867 150.4590683 -129.0625 148.1875 C-128.72863281 147.34832031 -128.39476562 146.50914062 -128.05078125 145.64453125 C-127.70402344 144.77183594 -127.35726562 143.89914063 -127 143 C-126.25044109 141.12482362 -125.50045718 139.24981706 -124.75 137.375 C-124.24726562 136.11816406 -124.24726562 136.11816406 -123.734375 134.8359375 C-123.37085938 133.92714844 -123.37085938 133.92714844 -123 133 C-122.34 133 -121.68 133 -121 133 C-120.896875 132.278125 -120.79375 131.55625 -120.6875 130.8125 C-120 128 -120 128 -118.625 125.75 C-116.42781533 122.03168748 -115.26350183 118.11310172 -114 114 C-113.34 114 -112.68 114 -112 114 C-111.814375 112.88625 -111.814375 112.88625 -111.625 111.75 C-111.04513299 109.19858515 -110.26291261 107.2732427 -109 105 C-108.34 105 -107.68 105 -107 105 C-107 103.35 -107 101.7 -107 100 C-106.34 100 -105.68 100 -105 100 C-104.8865625 99.4225 -104.773125 98.845 -104.65625 98.25 C-103.7339016 95.08766265 -101.9800459 92.71448692 -100.15625 90 C-98.99322455 87.9882803 -98.44567148 86.268873 -98 84 C-97.34 84 -96.68 84 -96 84 C-96 82.68 -96 81.36 -96 80 C-95.34 80 -94.68 80 -94 80 C-92.79371992 77.66785852 -91.8345262 75.50357861 -91 73 C-90.34 73 -89.68 73 -89 73 C-88.505 71.515 -88.505 71.515 -88 70 C-87.34 70 -86.68 70 -86 70 C-86.33 69.01 -86.66 68.02 -87 67 C-86.01 66.67 -85.02 66.34 -84 66 C-83.71511719 65.28457031 -83.43023438 64.56914062 -83.13671875 63.83203125 C-81.67842227 60.19881836 -79.36446582 57.590591 -76.8125 54.6875 C-76.31564697 54.11354492 -75.81879395 53.53958984 -75.30688477 52.94824219 C-74.31883998 51.80812875 -73.32826483 50.67020242 -72.33496094 49.53466797 C-71.23177543 48.26644849 -70.14832411 46.98109221 -69.0703125 45.69140625 C-64.54391242 40.30953822 -59.522965 35.36182976 -54 31 C-53.34 31 -52.68 31 -52 31 C-52 30.34 -52 29.68 -52 29 C-50.06640625 27.5625 -50.06640625 27.5625 -47.5625 26 C-44.18993349 24.0470084 -44.18993349 24.0470084 -42 21 C-40.68 21 -39.36 21 -38 21 C-37.505 19.515 -37.505 19.515 -37 18 C-34.91796875 16.60546875 -34.91796875 16.60546875 -32.1875 15.1875 C-31.1975 14.671875 -30.2075 14.15625 -29.1875 13.625 C-28.135625 13.08875 -27.08375 12.5525 -26 12 C-24.948125 11.443125 -23.89625 10.88625 -22.8125 10.3125 C-17.8004244 7.70622069 -13.65779286 5.71035804 -8 5 C-8 4.34 -8 3.68 -8 3 C-5.36 2.67 -2.72 2.34 0 2 C0 1.34 0 0.68 0 0 Z " fill="#7A4012" transform="translate(695,89)"/>
<path d="M0 0 C0.33 0 0.66 0 1 0 C0.53808918 5.84681855 -0.07865073 11.63519552 -0.9375 17.4375 C-4.43573129 43.37175599 -5.30179424 69.9217175 -3 96 C-2.90332031 97.12269287 -2.90332031 97.12269287 -2.8046875 98.26806641 C-1.34173444 114.96672733 0.82610219 131.54906659 4.0625 148 C4.22476074 148.83080078 4.38702148 149.66160156 4.55419922 150.51757812 C5.37848703 154.55784368 6.4093818 158.18382547 8 162 C9.32541055 167.62072253 10.31308324 173.2079601 10 179 C10.66 179 11.32 179 12 179 C13.2559846 182.34929225 14.02320048 185.23587154 14.375 188.8125 C14.80198353 192.83834473 16.21360556 195.93459491 17.953125 199.55859375 C19.48872899 203.13975978 20.37369699 206.83726638 21.2890625 210.6171875 C21.94192119 213.23101041 21.94192119 213.23101041 24 216 C24.68216803 218.0465041 25.36048979 220.0943692 26.01953125 222.1484375 C27.20839176 225.60607963 28.56405425 228.98784917 29.9375 232.375 C33.67407278 241.64568988 33.67407278 241.64568988 35.375 246.125 C35.69210937 246.95257812 36.00921875 247.78015625 36.3359375 248.6328125 C37.05318248 251.18957988 37.12224946 253.35753083 37 256 C34.29068581 255.84518205 32.53415961 255.51827919 30.5546875 253.59765625 C29.32320358 252.10228292 28.1570163 250.5537076 27 249 C31.26120815 249.47346757 33.13466237 252.02061908 36 255 C35.54109375 253.90042969 35.0821875 252.80085937 34.609375 251.66796875 C31.53129882 244.26145284 28.50446985 236.86616423 25.84375 229.296875 C25.06794284 227.1849555 24.19229907 225.16664797 23.25 223.125 C22.04525629 220.11314073 21.70936262 218.19701121 22 215 C21.34 215 20.68 215 20 215 C17.56574762 210.03006806 16.65384002 206.65394631 17 201 C16.34 201 15.68 201 15 201 C15 199.02 15 197.04 15 195 C14.34 195 13.68 195 13 195 C12.72285156 193.92878906 12.44570313 192.85757813 12.16015625 191.75390625 C11.79445076 190.35672373 11.42855554 188.95959085 11.0625 187.5625 C10.88009766 186.85544922 10.69769531 186.14839844 10.50976562 185.41992188 C9.81850626 181.92425139 9.81850626 181.92425139 8 179 C7.85884839 176.32941149 7.95752893 173.67567762 8 171 C7.34 171 6.68 171 6 171 C5.49356447 168.77228658 4.9951038 166.54275924 4.5 164.3125 C4.2215625 163.07113281 3.943125 161.82976562 3.65625 160.55078125 C3.10645874 157.57601782 2.86204295 155.00631398 3 152 C2.34 152 1.68 152 1 152 C0.89042969 150.91203125 0.78085937 149.8240625 0.66796875 148.703125 C-0.14940747 140.99177927 -1.19238991 133.62345231 -3.23077393 126.12384033 C-5.92585858 115.17905514 -6.30189081 104.16307394 -6.265625 92.953125 C-6.26697837 91.44683775 -6.26892442 89.94055092 -6.27142334 88.43426514 C-6.27434673 85.29793076 -6.27017036 82.16171145 -6.26074219 79.02539062 C-6.24938742 75.06075337 -6.25609078 71.09638562 -6.26761436 67.13175774 C-6.34619026 35.41460731 -6.34619026 35.41460731 -4 21 C-3.82210938 19.90558594 -3.64421875 18.81117188 -3.4609375 17.68359375 C-2.97431754 14.90341942 -2.4405755 12.14003579 -1.875 9.375 C-1.69324219 8.45460938 -1.51148438 7.53421875 -1.32421875 6.5859375 C-0.88944828 4.38920252 -0.44819984 2.19402629 0 0 Z " fill="#FA7C87" transform="translate(404,583)"/>
<path d="M0 0 C0.66 0 1.32 0 2 0 C1.3721982 7.40806122 1.3721982 7.40806122 -0.44238281 10.29394531 C-2.0548415 13.09527636 -2.74380394 15.39069208 -3.43359375 18.53515625 C-4.94747659 24.97433609 -6.93402213 31.17843241 -9.0625 37.4375 C-9.5894043 39.01047852 -9.5894043 39.01047852 -10.12695312 40.61523438 C-12.77730998 48.48614292 -12.77730998 48.48614292 -13.97338867 51.24609375 C-15.44927072 55.20517806 -16.32329964 59.26480696 -17.265625 63.37890625 C-17.70779932 65.27257528 -18.15120208 67.1659578 -18.59570312 69.05908203 C-18.82555908 70.03806458 -19.05541504 71.01704712 -19.29223633 72.0256958 C-20.44001915 76.84913532 -21.64756745 81.65715577 -22.859375 86.46484375 C-23.09700562 87.40961578 -23.33463623 88.35438782 -23.57946777 89.32778931 C-24.55075064 93.18641555 -25.52422693 97.04448295 -26.49951172 100.90209961 C-27.22569304 103.77666628 -27.94895619 106.65195515 -28.671875 109.52734375 C-28.89164001 110.39294418 -29.11140503 111.25854462 -29.33782959 112.15037537 C-30.40911603 116.41777917 -31.35834957 120.64146127 -32 125 C-32.33 125 -32.66 125 -33 125 C-33.31505978 118.69880437 -32.5194004 113.61017303 -30.86328125 107.54296875 C-29.60980048 102.39859294 -28.81136182 97.19718798 -28.00268555 91.96704102 C-27.09585749 86.19171498 -27.09585749 86.19171498 -26 84 C-25.34 84 -24.68 84 -24 84 C-23.9175 82.989375 -23.835 81.97875 -23.75 80.9375 C-23.151285 75.99810129 -21.77933269 71.28498837 -20.44238281 66.50732422 C-19.52819159 63.18443063 -18.77222486 59.99933884 -18.5 56.5625 C-17.96564031 52.75518719 -16.79096871 50.46316535 -14.984375 47.14453125 C-13.21243787 43.28423963 -12.68604661 39.16382744 -12 35 C-11.67203605 33.33226845 -11.34015642 31.66528751 -11 30 C-10.01 30 -9.02 30 -8 30 C-7.90912109 29.04287109 -7.90912109 29.04287109 -7.81640625 28.06640625 C-7.69072266 26.82697266 -7.69072266 26.82697266 -7.5625 25.5625 C-7.48128906 24.73878906 -7.40007812 23.91507812 -7.31640625 23.06640625 C-7 21 -7 21 -6 20 C-5.67828685 18.61078411 -5.39246504 17.21317219 -5.125 15.8125 C-4.28341993 11.81974043 -2.89501736 8.6252506 -1 5 C-0.30092586 2.26427415 -0.30092586 2.26427415 0 0 Z " fill="#FA7B86" transform="translate(439,454)"/>
<path d="M0 0 C0.33 1.32 0.66 2.64 1 4 C0.34 4 -0.32 4 -1 4 C-1 7.3 -1 10.6 -1 14 C0.13179687 13.6390625 1.26359375 13.278125 2.4296875 12.90625 C3.91141093 12.43735018 5.39318437 11.96860836 6.875 11.5 C7.62136719 11.26152344 8.36773438 11.02304687 9.13671875 10.77734375 C14.7734375 9 14.7734375 9 17 9 C17 9.99 17 10.98 17 12 C15.02 12.66 13.04 13.32 11 14 C11 14.66 11 15.32 11 16 C1.37178583 23.46861473 -8.23666239 26.03944373 -20 28 C-21.66789559 28.32712869 -23.33496535 28.658608 -25 29 C-25 29.66 -25 30.32 -25 31 C-26.98 31 -28.96 31 -31 31 C-31 30.34 -31 29.68 -31 29 C-26.9327104 27.05477454 -23.73722837 25.94442198 -19.25 25.5 C-11.98868294 24.16150838 -7.11940919 18.79105349 -3 13 C-2.16580471 10.18845292 -1.91843724 8.01055041 -2.02734375 5.09375 C-2 3 -2 3 0 0 Z " fill="#F66B77" transform="translate(592,279)"/>
<path d="M0 0 C0.33 0 0.66 0 1 0 C0.99887207 0.55308838 0.99774414 1.10617676 0.99658203 1.67602539 C1.09081124 21.99471013 4.25641396 41.65418397 7.60934448 61.63656616 C8.0084674 64.05122705 8.39092635 66.4680673 8.76977539 68.88598633 C10.06964606 77.10116897 11.60390719 84.88411129 14.36914062 92.75195312 C15.57288714 96.2973342 16.26443484 99.247884 16 103 C13.46276559 100.46276559 13.06368905 98.37531783 12.0625 94.9375 C10.95616328 91.17595515 9.82496507 87.47832877 8.4375 83.8125 C4.0117951 70.4396944 3.34153337 55.6622719 2.00195312 41.75097656 C1.88529297 40.54666992 1.76863281 39.34236328 1.6484375 38.1015625 C1.54708496 37.02213379 1.44573242 35.94270508 1.34130859 34.83056641 C1.0833627 32.12025619 1.0833627 32.12025619 0.46557617 30.02587891 C-0.19324211 27.15913843 -0.11101339 24.4229451 -0.09765625 21.484375 C-0.09443359 20.23398437 -0.09121094 18.98359375 -0.08789062 17.6953125 C-0.07951172 16.39335938 -0.07113281 15.09140625 -0.0625 13.75 C-0.05798828 12.43257812 -0.05347656 11.11515625 -0.04882812 9.7578125 C-0.03704316 6.50516259 -0.02059011 3.25260416 0 0 Z " fill="#FA707D" transform="translate(366,642)"/>
<path d="M0 0 C-1.42268345 3.28088223 -3.1517788 5.3129088 -5.75 7.75 C-9.08274699 10.9866678 -11.81543623 14.3226449 -14.515625 18.08984375 C-15.98822371 19.98484578 -17.54465125 21.50717511 -19.3125 23.125 C-24.6232864 28.20954214 -28.19008963 34.77109891 -32 41 C-32.99 40.67 -33.98 40.34 -35 40 C-33.82431717 35.1797004 -31.85125638 32.32201613 -28.5859375 28.74609375 C-27.06882692 27.07577743 -25.69565632 25.34383769 -24.3125 23.5625 C-23.549375 22.716875 -22.78625 21.87125 -22 21 C-21.01 21 -20.02 21 -19 21 C-18.7525 20.071875 -18.505 19.14375 -18.25 18.1875 C-16.87846256 14.69007952 -15.97211377 14.07147324 -13 12 C-12.484375 11.113125 -11.96875 10.22625 -11.4375 9.3125 C-10.963125 8.549375 -10.48875 7.78625 -10 7 C-9.01 7 -8.02 7 -7 7 C-6.896875 6.401875 -6.79375 5.80375 -6.6875 5.1875 C-5.47470998 1.32862265 -4.05869208 0 0 0 Z " fill="#A0573A" transform="translate(638,189)"/>
<path d="M0 0 C0.99 0.495 0.99 0.495 2 1 C1.17757812 1.68964844 0.35515625 2.37929688 -0.4921875 3.08984375 C-6.66431881 8.28019284 -12.76324398 13.52704655 -18.734375 18.94921875 C-20.82571374 20.84224088 -22.93652793 22.70855191 -25.0625 24.5625 C-25.701875 25.12195313 -26.34125 25.68140625 -27 26.2578125 C-28.41168042 27.48751849 -29.82889135 28.71088946 -31.25 29.9296875 C-35.56299834 33.67441917 -39.43613636 37.50679708 -43.12109375 41.8671875 C-45.31375761 44.35615729 -47.63864359 46.6706982 -50 49 C-54.21587182 53.16430152 -58.17993208 57.47157511 -62 62 C-62 58.45733129 -61.53482381 58.1366995 -59.18359375 55.671875 C-58.58353516 55.03636719 -57.98347656 54.40085937 -57.36523438 53.74609375 C-56.72908203 53.08738281 -56.09292969 52.42867188 -55.4375 51.75 C-54.82841797 51.10675781 -54.21933594 50.46351563 -53.59179688 49.80078125 C-49.46638855 45.46146286 -45.24865485 41.21824723 -41 37 C-38.26224032 34.27071636 -35.53792956 31.53023007 -32.8359375 28.765625 C-25.88896748 21.68850566 -18.81102166 15.13074375 -11 9 C-8.9300442 7.32144447 -6.87185146 5.62911013 -4.8125 3.9375 C-3.20833333 2.625 -1.60416667 1.3125 0 0 Z " fill="#FA7B86" transform="translate(506,342)"/>
<path d="M0 0 C0.33 1.32 0.66 2.64 1 4 C0.01 4.33 -0.98 4.66 -2 5 C-2.68422293 7.1115754 -2.94732365 9.19026518 -3.27734375 11.3828125 C-4.07291603 14.26407429 -5.43500246 16.50664924 -6.95922852 19.05908203 C-8.79833493 22.48880195 -9.85132738 26.16937743 -11 29.875 C-12.99950068 36.11247605 -15.15318984 42.08739428 -18 48 C-19.47451921 43.3552645 -18.41564539 39.55788718 -17 35 C-16.0398183 33.31008021 -15.04644066 31.63790712 -14 30 C-13.29329272 27.30745009 -13.29329272 27.30745009 -13 25 C-12.34 25 -11.68 25 -11 25 C-10.9071875 23.576875 -10.9071875 23.576875 -10.8125 22.125 C-9.65108553 14.0278146 -4.40774947 6.7147843 0 0 Z " fill="#FA7984" transform="translate(400,467)"/>
<path d="M0 0 C0.66 0.33 1.32 0.66 2 1 C-2.43626032 6.96600525 -7.9907991 11.6455066 -14 16 C-14.66 16 -15.32 16 -16 16 C-16.226875 16.556875 -16.45375 17.11375 -16.6875 17.6875 C-18.36108101 20.63619036 -20.60293013 22.60293013 -23 25 C-23.84965174 26.23896585 -24.68279792 27.4893949 -25.5 28.75 C-27.28271898 31.35899507 -27.68932605 31.89644202 -30.8125 32.9375 C-31.8953125 32.9684375 -31.8953125 32.9684375 -33 33 C-26.1903533 23.43979013 -18.40461728 14.11808243 -9 7 C-8.34 7 -7.68 7 -7 7 C-7 6.34 -7 5.68 -7 5 C-5.46875 3.7109375 -5.46875 3.7109375 -3.5 2.375 C-2.8503125 1.92898437 -2.200625 1.48296875 -1.53125 1.0234375 C-1.0259375 0.68570313 -0.520625 0.34796875 0 0 Z " fill="#9E5638" transform="translate(650,113)"/>
<path d="M0 0 C1.3448757 2.68975139 0.71921998 3.89291421 0.00390625 6.7890625 C-0.22490234 7.73007812 -0.45371094 8.67109375 -0.68945312 9.640625 C-0.93630859 10.62546875 -1.18316406 11.6103125 -1.4375 12.625 C-1.68048828 13.61757813 -1.92347656 14.61015625 -2.17382812 15.6328125 C-2.77634643 18.09014208 -3.38531647 20.54569033 -4 23 C-4.66 23 -5.32 23 -6 23 C-6.09796875 23.67160156 -6.1959375 24.34320312 -6.296875 25.03515625 C-7.58506863 33.64162234 -9.06334737 42.20865738 -10.59082031 50.77563477 C-11.54456187 56.17419789 -12.37476069 61.55332763 -13 67 C-13.33 67 -13.66 67 -14 67 C-14.16823 60.27436048 -13.75852812 53.88814302 -12.6875 47.25 C-12.55214844 46.38673096 -12.41679687 45.52346191 -12.27734375 44.6340332 C-9.28681423 25.9899507 -9.28681423 25.9899507 -6.5390625 19.60546875 C-4.92032406 15.81334799 -3.8604771 12.11421128 -2.875 8.125 C-1.125 1.125 -1.125 1.125 0 0 Z " fill="#FA7B86" transform="translate(380,515)"/>
<path d="M0 0 C0.66 0.33 1.32 0.66 2 1 C1.03900391 1.94359375 1.03900391 1.94359375 0.05859375 2.90625 C-9.36975887 12.07376461 -9.36975887 12.07376461 -17.3125 22.5 C-17.869375 23.325 -18.42625 24.15 -19 25 C-19.66 25 -20.32 25 -21 25 C-21.20625 25.721875 -21.4125 26.44375 -21.625 27.1875 C-23.1110564 30.22716083 -24.8301783 31.6341821 -27.48046875 33.671875 C-29.84417567 35.73783991 -31.30988968 38.37741503 -33 41 C-33.99 41.66 -34.98 42.32 -36 43 C-28.33919342 26.86641194 -12.46357601 12.46357601 0 0 Z " fill="#FA7581" transform="translate(515,341)"/>
<path d="M0 0 C0 3.60410186 -0.98950261 5.12991057 -2.75 8.25 C-3.30042969 9.23355469 -3.85085938 10.21710938 -4.41796875 11.23046875 C-5.62600519 13.34527823 -6.84064538 15.45568072 -8.0625 17.5625 C-10.54193015 21.96148898 -12.7751161 26.46816681 -15 31 C-15.66 31 -16.32 31 -17 31 C-17.0825 32.0725 -17.165 33.145 -17.25 34.25 C-18.05476902 38.2738451 -18.87729874 39.48169253 -22 42 C-21.3823197 37.13457978 -19.29685579 33.28679943 -17.0625 29 C-13.77101703 22.62001105 -13.77101703 22.62001105 -11 16 C-10.34 16 -9.68 16 -9 16 C-8.82984375 15.41992188 -8.6596875 14.83984375 -8.484375 14.2421875 C-6.92132011 9.20382972 -5.23912757 5.17951945 -2 1 C-1.34 0.67 -0.68 0.34 0 0 Z " fill="#FA7B86" transform="translate(469,399)"/>
<path d="M0 0 C0 3.55704157 -0.76217667 4.368929 -2.8125 7.1875 C-4.81570547 10.07790603 -6.39591412 12.66097663 -7.5 16 C-8.87209301 20.08380347 -11.06110932 23.30648464 -13.515625 26.82421875 C-14.86139828 28.79683906 -16.0418833 30.78204642 -17.1875 32.875 C-18.64975921 35.39613657 -19.80851078 37.13723416 -22 39 C-21.5020163 35.26512223 -21.12508244 33.18762365 -19 30 C-18.34 30 -17.68 30 -17 30 C-16.78085937 29.03320312 -16.56171875 28.06640625 -16.3359375 27.0703125 C-14.93720346 22.18580542 -12.31581613 18.14490033 -9.625 13.875 C-9.14289063 13.08996094 -8.66078125 12.30492187 -8.1640625 11.49609375 C-5.65738895 7.4568073 -3.08063095 3.63543652 0 0 Z " fill="#FA7783" transform="translate(423,428)"/>
<path d="M0 0 C0.33 0 0.66 0 1 0 C0.74610133 7.87085865 -1.68876395 12.52242145 -6 19 C-7.88198163 22.02095869 -9.34850279 24.48191508 -10 28 C-10.66 28 -11.32 28 -12 28 C-12.22036864 24.14354879 -11.60355101 21.50776784 -10 18 C-9.34 18 -8.68 18 -8 18 C-7.814375 16.88625 -7.814375 16.88625 -7.625 15.75 C-7.04513299 13.19858515 -6.26291261 11.2732427 -5 9 C-4.34 9 -3.68 9 -3 9 C-3 7.35 -3 5.7 -3 4 C-2.34 4 -1.68 4 -1 4 C-0.67 2.68 -0.34 1.36 0 0 Z " fill="#A1583B" transform="translate(591,185)"/>
<path d="M0 0 C0.66 0 1.32 0 2 0 C1.4222095 4.27096492 -0.07534358 7.18835792 -2.375 10.8125 C-2.98085938 11.78832031 -3.58671875 12.76414063 -4.2109375 13.76953125 C-4.80132813 14.50558594 -5.39171875 15.24164063 -6 16 C-6.99 16 -7.98 16 -9 16 C-9 17.65 -9 19.3 -9 21 C-9.99 21.33 -10.98 21.66 -12 22 C-11.33333333 19.33333333 -10.66666667 16.66666667 -10 14 C-9.34 14 -8.68 14 -8 14 C-8 12.68 -8 11.36 -8 10 C-7.34 10 -6.68 10 -6 10 C-4.79371992 7.66785852 -3.8345262 5.50357861 -3 3 C-2.34 3 -1.68 3 -1 3 C-0.67 2.01 -0.34 1.02 0 0 Z " fill="#A75C41" transform="translate(607,159)"/>
<path d="M0 0 C1.41838263 2.83676526 0.53378363 4.28432871 -0.3125 7.3125 C-1.69291712 12.57300847 -2.62521395 17.75416675 -3.39453125 23.1328125 C-4.69844259 31.46102038 -6.38783238 39.72678755 -8 48 C-8.33 48 -8.66 48 -9 48 C-9.33781433 41.80673725 -8.63867352 36.08136566 -7.5625 30 C-7.42803467 29.23373291 -7.29356934 28.46746582 -7.1550293 27.67797852 C-6.13397879 22.13397879 -6.13397879 22.13397879 -5 21 C-4.34080097 17.45539266 -3.75469472 13.90676704 -3.19335938 10.34570312 C-2.01695833 3.25682017 -2.01695833 3.25682017 0 0 Z " fill="#FA6F7C" transform="translate(409,556)"/>
<path d="M0 0 C0.33 0 0.66 0 1 0 C1.25652344 1.04027344 1.51304687 2.08054687 1.77734375 3.15234375 C2.71945114 6.92326348 3.70089544 10.68292253 4.69140625 14.44140625 C4.99626953 15.60220703 5.30113281 16.76300781 5.61523438 17.95898438 C6.24795815 20.36594387 6.88338592 22.77219415 7.52148438 25.17773438 C8.98667444 30.77407606 10.38285478 36.24279599 11 42 C8.46276559 39.46276559 8.06368905 37.37531783 7.0625 33.9375 C5.91365134 30.04678949 4.74066197 26.19469415 3.375 22.375 C0.92941827 15.10507398 -0.34066648 7.66499589 0 0 Z " fill="#FA7C87" transform="translate(371,703)"/>
<path d="M0 0 C0.8357887 2.34655039 1.21745975 3.50502333 0.19555664 5.83105469 C-0.22862549 6.43852539 -0.65280762 7.04599609 -1.08984375 7.671875 C-1.54423828 8.33574219 -1.99863281 8.99960938 -2.46679688 9.68359375 C-2.95212891 10.36550781 -3.43746094 11.04742187 -3.9375 11.75 C-4.41896484 12.44738281 -4.90042969 13.14476562 -5.39648438 13.86328125 C-6.58640237 15.58336073 -7.79175537 17.29274396 -9 19 C-9.99 18.67 -10.98 18.34 -12 18 C-10.62045785 12.3438772 -7.80621753 9.1751876 -4 5 C-2.65807132 3.34024611 -1.32090525 1.67653359 0 0 Z " fill="#9B5434" transform="translate(615,211)"/>
<path d="M0 0 C0.66 0 1.32 0 2 0 C2.8560107 3.58256331 2.91299949 6.41751978 2 10 C0.40121051 12.45499587 -1.49745162 14.49244848 -3.5625 16.5625 C-4.07522461 17.08682617 -4.58794922 17.61115234 -5.11621094 18.15136719 C-8.87164368 21.67397707 -11.71795233 22.72690548 -17 23 C-15 20 -15 20 -11.8125 18.75 C-7.22182697 16.87330977 -3.72226731 14.17979853 -1 10 C-0.17278142 6.64217785 0.04860506 3.45095956 0 0 Z " fill="#A65137" transform="translate(588,282)"/>
<path d="M0 0 C0 3.78857973 -0.89546445 4.35539468 -3.5 7 C-8.50063704 11.82330949 -12.91332619 14 -20 14 C-20 14.66 -20 15.32 -20 16 C-21.98 16 -23.96 16 -26 16 C-26 15.34 -26 14.68 -26 14 C-21.927298 12.052186 -18.61206344 10.90783878 -14.125 10.375 C-7.63245527 9.25971624 -4.11863133 4.83491503 0 0 Z " fill="#E36063" transform="translate(587,294)"/>
<path d="M0 0 C0 4.18270011 -2.32133687 5.88478423 -5.0625 8.75 C-5.56112549 9.28206055 -6.05975098 9.81412109 -6.57348633 10.36230469 C-10.30216074 14.32270463 -14.11068772 18.19711688 -18 22 C-18 19 -18 19 -16.1015625 16.87890625 C-15.28429687 16.11449219 -14.46703125 15.35007812 -13.625 14.5625 C-10.6771814 11.79716541 -8.75975395 9.6001633 -7 6 C-5.2734375 4.296875 -5.2734375 4.296875 -3.375 2.75 C-2.74335937 2.22921875 -2.11171875 1.7084375 -1.4609375 1.171875 C-0.73777344 0.59179688 -0.73777344 0.59179688 0 0 Z " fill="#FA838D" transform="translate(525,332)"/>
<path d="M0 0 C0.99 0 1.98 0 3 0 C3.05382106 2.62527189 3.09358313 5.24944713 3.125 7.875 C3.14175781 8.62136719 3.15851562 9.36773437 3.17578125 10.13671875 C3.1933959 12.09194461 3.10320189 14.04742021 3 16 C2.34 16.66 1.68 17.32 1 18 C-0.2039337 14.24600202 -0.09877617 10.66782588 -0.0625 6.75 C-0.05347656 5.48671875 -0.04445313 4.2234375 -0.03515625 2.921875 C-0.02355469 1.95765625 -0.01195312 0.9934375 0 0 Z " fill="#9E5638" transform="translate(590,263)"/>
<path d="M0 0 C-1.34484714 4.04161955 -3.0505162 6.38678154 -6.125 9.3125 C-6.84945312 10.00988281 -7.57390625 10.70726562 -8.3203125 11.42578125 C-8.87460937 11.94527344 -9.42890625 12.46476563 -10 13 C-10.33 11.68 -10.66 10.36 -11 9 C-10.01 9 -9.02 9 -8 9 C-7.7525 8.071875 -7.505 7.14375 -7.25 6.1875 C-5.81584153 2.53039589 -4.19346816 0 0 0 Z " fill="#AD5F47" transform="translate(627,201)"/>
<path d="M0 0 C0 3.58050122 -0.83159845 4.51032702 -2.875 7.375 C-5.09274543 10.4927001 -6.68952504 13.39937464 -8 17 C-8.66 17 -9.32 17 -10 17 C-10.66 18.32 -11.32 19.64 -12 21 C-12 17.74061959 -11.56967977 16.94280815 -9.8828125 14.27734375 C-9.44066406 13.57416016 -8.99851562 12.87097656 -8.54296875 12.14648438 C-7.84107422 11.05303711 -7.84107422 11.05303711 -7.125 9.9375 C-6.66480469 9.20466797 -6.20460938 8.47183594 -5.73046875 7.71679688 C-2.29546523 2.29546523 -2.29546523 2.29546523 0 0 Z " fill="#FA808B" transform="translate(423,428)"/>
<path d="M0 0 C0.66 0 1.32 0 2 0 C1.61330541 6.96050253 -0.63438409 11.9394075 -4 18 C-4.33 18 -4.66 18 -5 18 C-4.49775354 12.97753538 -3.32134845 9.44925119 -1 5 C-0.30092586 2.26427415 -0.30092586 2.26427415 0 0 Z " fill="#FA7480" transform="translate(439,454)"/>
<path d="M0 0 C-1 1 -1 1 -2.84765625 1.09765625 C-4.8984375 1.06510417 -6.94921875 1.03255208 -9 1 C-9 1.66 -9 2.32 -9 3 C-12.63 3.66 -16.26 4.32 -20 5 C-20 4.34 -20 3.68 -20 3 C-4.97375691 -1.72168508 -4.97375691 -1.72168508 0 0 Z " fill="#F87D87" transform="translate(587,305)"/>
<path d="M0 0 C3.71503732 1.23834577 4.18003466 2.81727486 5.9453125 6.15625 C7.06950297 8.24885725 7.06950297 8.24885725 9.3125 10.75 C9.869375 11.4925 10.42625 12.235 11 13 C10.67 13.99 10.34 14.98 10 16 C0 4.07692308 0 4.07692308 0 0 Z " fill="#FA7984" transform="translate(408,802)"/>
<path d="M0 0 C0.66 0 1.32 0 2 0 C0.89881448 3.30355656 0.33948243 3.75751255 -2.37890625 5.69921875 C-3.05244141 6.18583984 -3.72597656 6.67246094 -4.41992188 7.17382812 C-5.12697266 7.67333984 -5.83402344 8.17285156 -6.5625 8.6875 C-7.27341797 9.19861328 -7.98433594 9.70972656 -8.71679688 10.23632812 C-10.47309098 11.49755946 -12.23593636 12.74965887 -14 14 C-14.66 13.67 -15.32 13.34 -16 13 C-15.01257813 12.22914063 -14.02515625 11.45828125 -13.0078125 10.6640625 C-11.71348671 9.65111188 -10.41921889 8.63808719 -9.125 7.625 C-8.47402344 7.11710937 -7.82304688 6.60921875 -7.15234375 6.0859375 C-6.52714844 5.59609375 -5.90195312 5.10625 -5.2578125 4.6015625 C-4.6817627 4.15119629 -4.10571289 3.70083008 -3.51220703 3.23681641 C-1.86533246 1.93178492 -1.86533246 1.93178492 0 0 Z " fill="#FA7E89" transform="translate(524,328)"/>
<path d="M0 0 C1 2 1 2 0.22265625 4.3828125 C-0.16019531 5.28773438 -0.54304688 6.19265625 -0.9375 7.125 C-1.31777344 8.03507812 -1.69804687 8.94515625 -2.08984375 9.8828125 C-2.39019531 10.58148438 -2.69054687 11.28015625 -3 12 C-3.66 12 -4.32 12 -5 12 C-4.10164835 4.21428571 -4.10164835 4.21428571 -2 1 C-1.34 0.67 -0.68 0.34 0 0 Z " fill="#FA7884" transform="translate(446,442)"/>
<path d="M0 0 C1 3 1 3 0.375 5.5 C-1.30353603 8.55188369 -2.85031164 9.58264024 -6 11 C-6.66 10.67 -7.32 10.34 -8 10 C-7.01 9.67 -6.02 9.34 -5 9 C-4.28752268 7.3523962 -3.62599617 5.68236471 -3 4 C-2.04175747 2.63634717 -1.05278825 1.29205831 0 0 Z " fill="#AA5E44" transform="translate(616,146)"/>
<path d="M0 0 C1.32 0.33 2.64 0.66 4 1 C3.525625 1.7425 3.05125 2.485 2.5625 3.25 C1.22130673 5.61050015 0.487688 7.36648477 0 10 C-0.66 10 -1.32 10 -2 10 C-2.22036864 6.14354879 -1.60355101 3.50776784 0 0 Z " fill="#94502D" transform="translate(581,203)"/>
<path d="M0 0 C0.99 0.33 1.98 0.66 3 1 C1.35 2.98 -0.3 4.96 -2 7 C-3.32 6.34 -4.64 5.68 -6 5 C-5.67 4.34 -5.34 3.68 -5 3 C-3.68 3 -2.36 3 -1 3 C-0.67 2.01 -0.34 1.02 0 0 Z " fill="#9E5638" transform="translate(658,107)"/>
<path d="M0 0 C0.33 0 0.66 0 1 0 C1.125 6.75 1.125 6.75 0 9 C-0.99 9 -1.98 9 -3 9 C-2.44271087 5.65626525 -1.64826111 2.96687001 0 0 Z " fill="#B0624B" transform="translate(586,194)"/>
<path d="M0 0 C1.15518918 0.90484792 2.29885406 1.8244206 3.4375 2.75 C4.07558594 3.26046875 4.71367187 3.7709375 5.37109375 4.296875 C7.18810554 6.19667629 7.60423197 7.43586908 8 10 C6.84481082 9.09515208 5.70114594 8.1755794 4.5625 7.25 C3.60537109 6.48429688 3.60537109 6.48429688 2.62890625 5.703125 C0.81189446 3.80332371 0.39576803 2.56413092 0 0 Z " fill="#FA7984" transform="translate(423,822)"/>
<path d="M0 0 C-1.32 0.33 -2.64 0.66 -4 1 C-4 1.99 -4 2.98 -4 4 C-5.98 4 -7.96 4 -10 4 C-10 3.34 -10 2.68 -10 2 C-3.375 -1.125 -3.375 -1.125 0 0 Z " fill="#BD5A4B" transform="translate(571,306)"/>
<path d="M0 0 C2.63978826 3.18595135 5.10498388 6.30970546 7 10 C6.67 10.66 6.34 11.32 6 12 C3.02404533 9.44918171 1.55997434 6.56565563 0 3 C0 2.01 0 1.02 0 0 Z " fill="#FA7985" transform="translate(399,786)"/>
<path d="M0 0 C0.33 1.32 0.66 2.64 1 4 C-0.98 4.99 -0.98 4.99 -3 6 C-3 6.66 -3 7.32 -3 8 C-3.66 8 -4.32 8 -5 8 C-3.8141763 4.62496331 -2.72426311 2.35277269 0 0 Z " fill="#8B4A24" transform="translate(615,211)"/>
<path d="M0 0 C-1.45255699 3.82946843 -3.42895561 5.12050295 -7 7 C-3.86206897 0 -3.86206897 0 0 0 Z M-9 7 C-8.34 7.33 -7.68 7.66 -7 8 C-7.99 8 -8.98 8 -10 8 C-9.67 7.67 -9.34 7.34 -9 7 Z " fill="#874820" transform="translate(654,113)"/>
<path d="M0 0 C0.66 0.33 1.32 0.66 2 1 C-1.515625 5.6875 -1.515625 5.6875 -3 7 C-4.32 7 -5.64 7 -7 7 C-7 6.34 -7 5.68 -7 5 C-5.46875 3.7109375 -5.46875 3.7109375 -3.5 2.375 C-2.8503125 1.92898437 -2.200625 1.48296875 -1.53125 1.0234375 C-1.0259375 0.68570313 -0.520625 0.34796875 0 0 Z " fill="#B3644E" transform="translate(650,113)"/>
<path d="M0 0 C2.02054804 1.64169528 4.02043058 3.30911778 6 5 C6 5.33 6 5.66 6 6 C4.35 6 2.7 6 1 6 C0.67 4.02 0.34 2.04 0 0 Z " fill="#AE6049" transform="translate(710,101)"/>
<path d="M0 0 C0 3 0 3 0 3 Z M-3 3 C-2.34 3.33 -1.68 3.66 -1 4 C-3.97 6.475 -3.97 6.475 -7 9 C-6.67 7.35 -6.34 5.7 -6 4 C-5.01 3.67 -4.02 3.34 -3 3 Z " fill="#884820" transform="translate(623,142)"/>
<path d="M0 0 C1.37562854 1.28965176 2.70766393 2.62689293 4 4 C4 4.66 4 5.32 4 6 C2.68 5.67 1.36 5.34 0 5 C-0.5625 3.0625 -0.5625 3.0625 -1 1 C-0.67 0.67 -0.34 0.34 0 0 Z " fill="#975231" transform="translate(722,115)"/>
<path d="M0 0 C0.66 0.66 1.32 1.32 2 2 C1.34 2.66 0.68 3.32 0 4 C-0.69748583 5.31747324 -1.36959957 6.64914193 -2 8 C-2.6875 5.6875 -2.6875 5.6875 -3 3 C-1.5625 1.1875 -1.5625 1.1875 0 0 Z " fill="#83451B" transform="translate(577,215)"/>
</svg>
